<svg xmlns="http://www.w3.org/2000/svg" viewBox="0 0 720 72" fill="none" stroke="#CFCFCF" stroke-width="1.4" stroke-linecap="round" stroke-linejoin="round"><defs><path id="side" d="M360 36H238c-28 0-39-21-64-21-23 0-31 17-52 17-18 0-28-12-42-12-18 0-30 10-47 16 17 6 29 16 47 16 14 0 24-12 42-12 21 0 29 17 52 17 25 0 36-21 64-21h122M244 36c-24-5-34-17-45-28-2 14 4 24 18 31-14 7-20 17-18 31 11-11 21-23 45-28M153 17c-8 7-11 13-8 19-3 6 0 12 8 19M105 25l10 11-10 11M65 29l8 7-8 7"/></defs><use href="#side"/><use href="#side" transform="translate(720 0) scale(-1 1)"/><path d="M360 7l8 15 16-2-7 16 7 16-16-2-8 15-8-15-16 2 7-16-7-16 16 2 8-15Z"/><circle cx="360" cy="36" r="8"/><path d="M18 36h18m648 0h18"/></svg>
