<svg xmlns="http://www.w3.org/2000/svg" viewBox="0 0 600 48" fill="none" stroke="#CFCFCF" stroke-width="1.25" stroke-linecap="round" stroke-linejoin="round"><defs><g id="side"><path d="M300 24H54"/><path d="M300 28H74"/><path d="M54 24c12-8 19-8 30 0-11 8-18 8-30 0ZM36 24c8-5 13-5 20 0-7 5-12 5-20 0Z"/><path d="M250 24c12-10 23-10 34 0-11 10-22 10-34 0Z"/></g></defs><use href="#side"/><use href="#side" transform="translate(600 0) scale(-1 1)"/><path d="M300 5c-3 8-9 14-18 19 9 5 15 11 18 19 3-8 9-14 18-19-9-5-15-11-18-19Z"/><path d="M300 12c-1 6-5 10-11 12 6 2 10 6 11 12 1-6 5-10 11-12-6-2-10-6-11-12Z"/></svg>
