<svg xmlns="http://www.w3.org/2000/svg" viewBox="0 0 80 80" fill="none" stroke="#CFCFCF" stroke-width="1.25" stroke-linecap="round" stroke-linejoin="round"><defs><path id="q" d="M40 7c-3 10-9 17-19 21 8 4 13 8 19 17 6-9 11-13 19-17-10-4-16-11-19-21Z"/></defs><use href="#q"/><use href="#q" transform="rotate(90 40 40)"/><use href="#q" transform="rotate(180 40 40)"/><use href="#q" transform="rotate(270 40 40)"/><circle cx="40" cy="40" r="13"/><circle cx="40" cy="40" r="17"/><path d="M40 27c3 5 7 9 13 13-6 4-10 8-13 13-3-5-7-9-13-13 6-4 10-8 13-13Z"/></svg>
