<svg xmlns="http://www.w3.org/2000/svg" viewBox="0 0 160 72" fill="none" stroke="#CFCFCF" stroke-width="1.25" stroke-linecap="round" stroke-linejoin="round"><defs><g id="half"><path d="M80 13H39c-7 0-11 6-15 12-4 6-9 9-16 11 7 2 12 5 16 11 4 6 8 12 15 12h41"/><path d="M80 19H42c-6 0-9 5-13 10-3 4-7 6-12 7 5 1 9 3 12 7 4 5 7 10 13 10h38"/><path d="M38 25c7 3 11 6 13 11-2 5-6 8-13 11 4-5 5-8 5-11s-1-6-5-11ZM58 36c6-7 12-7 18 0-6 7-12 7-18 0Z"/></g></defs><use href="#half"/><use href="#half" transform="translate(160 0) scale(-1 1)"/><path d="M80 5c-2 7-6 11-13 15 7 3 11 8 13 15 2-7 6-12 13-15-7-4-11-8-13-15ZM80 67c-2-7-6-11-13-15 7-3 11-8 13-15 2 7 6 12 13 15-7 4-11 8-13 15Z"/></svg>
