<svg xmlns="http://www.w3.org/2000/svg" viewBox="0 0 720 120" fill="none" stroke="#CFCFCF" stroke-width="1.5" stroke-linecap="round" stroke-linejoin="round">
<defs><g id="half"><path d="M360 18H151c-13 0-23 9-30 19-8 11-18 18-31 23 13 5 23 12 31 23 7 10 17 19 30 19h209"/><path d="M360 25H156c-10 0-18 7-24 16-6 8-13 14-22 19 9 5 16 11 22 19 6 9 14 16 24 16h204"/><path d="M122 40c-18-2-31-11-42-24 1 17-5 29-22 36 13 0 23 2 32 8-9 6-19 8-32 8 17 7 23 19 22 36 11-13 24-22 42-24"/><path d="M92 60C73 48 57 43 36 45c9 7 13 12 14 15-1 3-5 8-14 15 21 2 37-3 56-15Z"/><path d="M151 31c-11 11-15 20-11 29-4 9 0 18 11 29M151 31c9 7 15 16 17 29-2 13-8 22-17 29"/><path d="M126 49c8-1 14 3 19 11-5 8-11 12-19 11 5-4 7-8 7-11s-2-7-7-11Z"/><path d="M174 34c15 10 23 18 25 26-2 8-10 16-25 26 9-13 12-21 12-26s-3-13-12-26Z"/><path d="M207 29c8 10 12 20 12 31s-4 21-12 31M219 60h141"/><path d="M252 60c9-11 17-17 25-17 8 0 13 6 13 12 0 7-6 12-14 12-6 0-11-2-16-7 5-5 10-7 16-7M309 60c7-9 14-13 21-13 8 0 14 6 14 13s-6 13-14 13c-7 0-14-4-21-13Z"/></g></defs>
<use href="#half"/><use href="#half" transform="translate(720 0) scale(-1 1)"/>
<path d="M360 7c-3 8-8 14-15 18 7 1 12 5 15 12 3-7 8-11 15-12-7-4-12-10-15-18ZM360 113c-3-8-8-14-15-18 7-1 12-5 15-12 3 7 8 11 15 12-7 4-12 10-15 18Z"/>
<path d="M333 47c8-7 17-11 27-11s19 4 27 11M333 73c8 7 17 11 27 11s19-4 27-11"/>
</svg>
