<svg xmlns="http://www.w3.org/2000/svg" viewBox="0 0 120 120" fill="none" stroke="#CFCFCF" stroke-width="1.5" stroke-linecap="round" stroke-linejoin="round"><path d="M60 5l11 20 21-9 3 23 23 3-9 21 20 11-20 11 9 21-23 3-3 23-21-9-11 20-11-20-21 9-3-23-23-3 9-21-20-11 20-11-9-21 23-3 3-23 21 9L60 5Z"/><path d="M60 20l8 18 19-5-5 19 18 8-18 8 5 19-19-5-8 18-8-18-19 5 5-19-18-8 18-8-5-19 19 5 8-18Z"/><circle cx="60" cy="60" r="20"/><path d="M60 40c8 6 14 12 20 20-6 8-12 14-20 20-8-6-14-12-20-20 6-8 12-14 20-20Z"/></svg>
