<svg xmlns="http://www.w3.org/2000/svg" viewBox="0 0 220 88" fill="none" stroke="#CFCFCF" stroke-width="1.5" stroke-linecap="round" stroke-linejoin="round"><path d="M10 44c26-6 35-23 55-23 17 0 25 12 45 23-20 11-28 23-45 23-20 0-29-17-55-23Zm200 0c-26-6-35-23-55-23-17 0-25 12-45 23 20 11 28 23 45 23 20 0 29-17 55-23Z"/><path d="M110 5l17 17 24-3-3 24 17 17-17 17 3 24-24-3-17 17-17-17-24 3 3-24-17-17 17-17-3-24 24 3 17-17Z"/><path d="M110 20l10 14 17-3-3 17 14 10-14 10 3 17-17-3-10 14-10-14-17 3 3-17-14-10 14-10-3-17 17 3 10-14Z"/><rect x="96" y="44" width="28" height="28" rx="2" transform="rotate(-45 96 44)"/><path d="M18 44h42m100 0h42"/></svg>
