<svg xmlns="http://www.w3.org/2000/svg" viewBox="0 0 160 160" fill="none" stroke="#CFCFCF" stroke-width="1.4" stroke-linecap="round" stroke-linejoin="round"><path d="M8 152V8h144M18 140V18h122M29 126V29h97"/><path d="M8 62c17-1 29-8 36-22 7-14 20-21 38-20-1 18-8 31-22 38-14 7-21 19-22 36M18 84c15-1 25-7 31-19 6-12 17-18 32-17-1 15-7 26-19 32-12 6-18 16-19 31"/><path d="M8 38l15-7 7-15 7 15 15 7-15 7-7 15-7-15-15-7Zm51 51 12-5 5-12 5 12 12 5-12 5-5 12-5-12-12-5Z"/><path d="M97 29c8 8 8 16 0 24-8 8-8 16 0 24M29 97c8-8 16-8 24 0 8 8 16 8 24 0"/></svg>
