<svg xmlns="http://www.w3.org/2000/svg" viewBox="0 0 720 144" fill="none" stroke="#CFCFCF" stroke-width="1.5" stroke-linecap="round" stroke-linejoin="round">
  <defs><path id="half" d="M360 18C310 18 285 29 260 42c-28 14-50 13-78 4-25-8-47-1-60 15-13 16-28 18-52 11 18 16 19 35 2 51 27-8 42-5 55 11 17-14 38-19 61-10 28 11 51 9 77-6 25-15 54-24 95-24M360 26c-46 0-69 12-91 27-21 14-43 16-70 10-28-7-46 3-55 22 9 18 27 28 55 21 27-6 49-4 70 10 22 15 45 27 91 27M127 61c12 4 20 13 23 26-4 13-12 22-23 27M98 74c9 5 15 13 17 24-3 10-9 18-18 24M180 48c-5 10-4 19 4 27 9 9 9 18 0 27-7 7-8 15-3 24M218 56c-6 8-6 16 1 23 7 7 7 14 0 21-7 7-7 15-1 23M267 42c-7 12-5 22 7 29 11 8 12 17 2 27-10 9-12 18-5 28M319 25c-10 10-10 20 0 30 11 10 11 20 0 30-10 10-10 20 0 31"/></defs>
  <rect x="18" y="12" width="684" height="120" rx="60"/><rect x="25" y="19" width="670" height="106" rx="53"/>
  <use href="#half"/><use href="#half" transform="translate(720 0) scale(-1 1)"/>
  <path d="M360 18l8 12-8 12-8-12 8-12Zm0 84 8 12-8 12-8-12 8-12Z"/>
  <g stroke-width="2"><path d="M291 86c11-18 26-30 43-29 11 1 18 8 18 17 0 10-9 18-22 18-14 0-22-7-20-17 2-9 12-15 27-16M351 91c4-22 12-38 24-47M360 91c7-17 19-26 35-26 10 0 16 6 15 14-1 9-10 14-24 14-13 0-20-5-18-14M411 92c8-18 18-29 31-32M430 91c7-14 16-21 28-21 9 0 14 5 13 12-1 8-9 12-21 12M474 91c4-16 10-28 18-37M493 91c7-13 14-21 23-24M515 91c7-11 14-17 23-18"/></g>
</svg>
