<svg xmlns="http://www.w3.org/2000/svg" viewBox="0 0 100 100" fill="none" stroke="#CFCFCF" stroke-width="1.6" stroke-linecap="round" stroke-linejoin="round"><circle cx="50" cy="50" r="31"/><circle cx="50" cy="50" r="24"/><path d="M50 4l9 15 17-5 2 18 18 2-5 17 15 9-15 9 5 17-18 2-2 18-17-5-9 15-9-15-17 5-2-18-18-2 5-17-15-9 15-9-5-17 18-2 2-18 17 5 9-15Z"/><path d="M50 19l6 12 13-3 3 13 12 6-9 10 6 12-13 3-6 12-10-9-12 6-3-13-13-3 9-10-6-12 13-3 3-13 10 9 12-6 3 13 13 3-9 10 6 12-13 3-3 13-10-9-12 6-3-13-12-6 9-10-6-12 13-3 6-12Z" opacity=".72"/></svg>
